{
    "asset": {
        "generator": "FBX2glTF v0.9.7",
        "version": "2.0"
    },
    "scene": 0,
    "buffers": [
        {
            "byteLength": 29936,
            "uri": "buffer.bin"
        }
    ],
    "bufferViews": [
        {
            "buffer": 0,
            "byteLength": 1380,
            "byteOffset": 0,
            "target": 34963
        },
        {
            "buffer": 0,
            "byteLength": 5736,
            "byteOffset": 1380,
            "target": 34962
        },
        {
            "buffer": 0,
            "byteLength": 5736,
            "byteOffset": 7116,
            "target": 34962
        },
        {
            "buffer": 0,
            "byteLength": 3824,
            "byteOffset": 12852,
            "target": 34962
        },
        {
            "buffer": 0,
            "byteLength": 780,
            "byteOffset": 16676,
            "target": 34963
        },
        {
            "buffer": 0,
            "byteLength": 4680,
            "byteOffset": 17456,
            "target": 34962
        },
        {
            "buffer": 0,
            "byteLength": 4680,
            "byteOffset": 22136,
            "target": 34962
        },
        {
            "buffer": 0,
            "byteLength": 3120,
            "byteOffset": 26816,
            "target": 34962
        }
    ],
    "scenes": [
        {
            "name": "Root Scene",
            "nodes": [
                0
            ]
        }
    ],
    "accessors": [
        {
            "componentType": 5123,
            "type": "SCALAR",
            "count": 690,
            "bufferView": 0,
            "byteOffset": 0
        },
        {
            "componentType": 5126,
            "type": "VEC3",
            "count": 478,
            "bufferView": 1,
            "byteOffset": 0,
            "min": [
                -0.0166849065572023,
                -0.0194324087351561,
                -0.0131735755130649
            ],
            "max": [
                0.0180196799337864,
                0.0299249496310949,
                0.0144146112725139
            ]
        },
        {
            "componentType": 5126,
            "type": "VEC3",
            "count": 478,
            "bufferView": 2,
            "byteOffset": 0
        },
        {
            "componentType": 5126,
            "type": "VEC2",
            "count": 478,
            "bufferView": 3,
            "byteOffset": 0
        },
        {
            "componentType": 5123,
            "type": "SCALAR",
            "count": 390,
            "bufferView": 4,
            "byteOffset": 0
        },
        {
            "componentType": 5126,
            "type": "VEC3",
            "count": 390,
            "bufferView": 5,
            "byteOffset": 0,
            "min": [
                -0.0124527150765061,
                -0.0119563275948167,
                -0.0135266836732626
            ],
            "max": [
                0.0115002226084471,
                0.0110879857093096,
                0.0198236275464296
            ]
        },
        {
            "componentType": 5126,
            "type": "VEC3",
            "count": 390,
            "bufferView": 6,
            "byteOffset": 0
        },
        {
            "componentType": 5126,
            "type": "VEC2",
            "count": 390,
            "bufferView": 7,
            "byteOffset": 0
        }
    ],
    "samplers": [
        {}
    ],
    "materials": [
        {
            "name": "Trunk",
            "alphaMode": "OPAQUE",
            "extras": {
                "fromFBX": {
                    "shadingModel": "Phong",
                    "isTruePBR": false
                }
            },
            "pbrMetallicRoughness": {
                "baseColorFactor": [
                    0.253054082393646,
                    0.0912305191159248,
                    0.0370936654508114,
                    1.0
                ],
                "metallicFactor": 0.400000005960464,
                "roughnessFactor": 1.0
            }
        },
        {
            "name": "Leaves",
            "alphaMode": "OPAQUE",
            "extras": {
                "fromFBX": {
                    "shadingModel": "Phong",
                    "isTruePBR": false
                }
            },
            "pbrMetallicRoughness": {
                "baseColorFactor": [
                    0.00325430650264025,
                    0.800000071525574,
                    0.0,
                    1.0
                ],
                "metallicFactor": 0.400000005960464,
                "roughnessFactor": 0.686948299407959
            }
        }
    ],
    "meshes": [
        {
            "name": "Trunk",
            "primitives": [
                {
                    "material": 0,
                    "mode": 4,
                    "attributes": {
                        "NORMAL": 2,
                        "POSITION": 1,
                        "TEXCOORD_0": 3
                    },
                    "indices": 0
                }
            ]
        },
        {
            "name": "Leaves",
            "primitives": [
                {
                    "material": 1,
                    "mode": 4,
                    "attributes": {
                        "NORMAL": 6,
                        "POSITION": 5,
                        "TEXCOORD_0": 7
                    },
                    "indices": 4
                }
            ]
        }
    ],
    "nodes": [
        {
            "name": "RootNode",
            "translation": [
                0.0,
                0.0,
                0.0
            ],
            "rotation": [
                0.0,
                0.0,
                0.0,
                1.0
            ],
            "scale": [
                1.0,
                1.0,
                1.0
            ],
            "children": [
                1,
                2
            ]
        },
        {
            "name": "Trunk",
            "translation": [
                0.0,
                0.0,
                0.0
            ],
            "rotation": [
                -0.707106828689575,
                0.0,
                0.0,
                0.707106709480286
            ],
            "scale": [
                155.050689697266,
                142.476791381836,
                908.863464355469
            ],
            "mesh": 0
        },
        {
            "name": "Leaves",
            "translation": [
                1.49011611938477e-08,
                20.0744647979736,
                -0.724207878112793
            ],
            "rotation": [
                -0.713196575641632,
                0.00114853284321725,
                -0.00258371350355446,
                0.700958371162415
            ],
            "scale": [
                590.46435546875,
                590.486083984375,
                665.458557128906
            ],
            "mesh": 1
        }
    ]
}