{
	"asset":{
		"generator":"Khronos glTF Blender I/O v4.2.57",
		"version":"2.0"
	},
	"scene":0,
	"scenes":[
		{
			"name":"Scene",
			"nodes":[
				0
			]
		}
	],
	"nodes":[
		{
			"mesh":0,
			"name":"RootNode",
			"translation":[
				0,
				4.470864772796631,
				0
			]
		}
	],
	"materials":[
		{
			"doubleSided":true,
			"name":"Material.001",
			"pbrMetallicRoughness":{
				"baseColorFactor":[
					0.2888900935649872,
					0.2888900935649872,
					0.2888900935649872,
					1
				],
				"roughnessFactor":0.5
			}
		},
		{
			"doubleSided":true,
			"name":"Material.002",
			"pbrMetallicRoughness":{
				"baseColorFactor":[
					0.8009624481201172,
					0.008698503486812115,
					0.017463140189647675,
					1
				],
				"metallicFactor":0,
				"roughnessFactor":0.5
			}
		},
		{
			"doubleSided":true,
			"name":"Material.003",
			"pbrMetallicRoughness":{
				"baseColorFactor":[
					0.8006223440170288,
					0.2849062979221344,
					0.013557806611061096,
					1
				],
				"metallicFactor":0,
				"roughnessFactor":0.5
			}
		},
		{
			"doubleSided":true,
			"name":"Material.004",
			"pbrMetallicRoughness":{
				"baseColorFactor":[
					0.003760159481316805,
					0.8005601167678833,
					0,
					1
				],
				"metallicFactor":0,
				"roughnessFactor":0.5
			}
		}
	],
	"meshes":[
		{
			"name":"Cylinder",
			"primitives":[
				{
					"attributes":{
						"POSITION":0,
						"NORMAL":1,
						"TEXCOORD_0":2
					},
					"indices":3,
					"material":0
				},
				{
					"attributes":{
						"POSITION":4,
						"NORMAL":5,
						"TEXCOORD_0":6
					},
					"indices":7,
					"material":1
				},
				{
					"attributes":{
						"POSITION":8,
						"NORMAL":9,
						"TEXCOORD_0":10
					},
					"indices":11,
					"material":2
				},
				{
					"attributes":{
						"POSITION":12,
						"NORMAL":13,
						"TEXCOORD_0":14
					},
					"indices":15,
					"material":3
				}
			]
		}
	],
	"accessors":[
		{
			"bufferView":0,
			"componentType":5126,
			"count":948,
			"max":[
				0.3897668123245239,
				5.370444297790527,
				0.7134630680084229
			],
			"min":[
				-5.772799968719482,
				-4.414999961853027,
				-0.29389744997024536
			],
			"type":"VEC3"
		},
		{
			"bufferView":1,
			"componentType":5126,
			"count":948,
			"type":"VEC3"
		},
		{
			"bufferView":2,
			"componentType":5126,
			"count":948,
			"type":"VEC2"
		},
		{
			"bufferView":3,
			"componentType":5123,
			"count":1620,
			"type":"SCALAR"
		},
		{
			"bufferView":4,
			"componentType":5126,
			"count":8,
			"max":[
				0.3232775926589966,
				5.284605026245117,
				0.7134630680084229
			],
			"min":[
				-5.7063117027282715,
				1.5622365474700928,
				0.2941579520702362
			],
			"type":"VEC3"
		},
		{
			"bufferView":5,
			"componentType":5126,
			"count":8,
			"type":"VEC3"
		},
		{
			"bufferView":6,
			"componentType":5126,
			"count":8,
			"type":"VEC2"
		},
		{
			"bufferView":7,
			"componentType":5123,
			"count":12,
			"type":"SCALAR"
		},
		{
			"bufferView":8,
			"componentType":5126,
			"count":8,
			"max":[
				0.3299371004104614,
				4.753473281860352,
				0.7134630680084229
			],
			"min":[
				-5.712971210479736,
				1.0179314613342285,
				0.2941579520702362
			],
			"type":"VEC3"
		},
		{
			"bufferView":9,
			"componentType":5126,
			"count":8,
			"type":"VEC3"
		},
		{
			"bufferView":10,
			"componentType":5126,
			"count":8,
			"type":"VEC2"
		},
		{
			"bufferView":11,
			"componentType":5123,
			"count":12,
			"type":"SCALAR"
		},
		{
			"bufferView":12,
			"componentType":5126,
			"count":8,
			"max":[
				0.32324326038360596,
				4.209134101867676,
				0.7134630680084229
			],
			"min":[
				-5.706277370452881,
				0.4868338108062744,
				0.2941579520702362
			],
			"type":"VEC3"
		},
		{
			"bufferView":13,
			"componentType":5126,
			"count":8,
			"type":"VEC3"
		},
		{
			"bufferView":14,
			"componentType":5126,
			"count":8,
			"type":"VEC2"
		},
		{
			"bufferView":15,
			"componentType":5123,
			"count":12,
			"type":"SCALAR"
		}
	],
	"bufferViews":[
		{
			"buffer":0,
			"byteLength":11376,
			"byteOffset":0,
			"target":34962
		},
		{
			"buffer":0,
			"byteLength":11376,
			"byteOffset":11376,
			"target":34962
		},
		{
			"buffer":0,
			"byteLength":7584,
			"byteOffset":22752,
			"target":34962
		},
		{
			"buffer":0,
			"byteLength":3240,
			"byteOffset":30336,
			"target":34963
		},
		{
			"buffer":0,
			"byteLength":96,
			"byteOffset":33576,
			"target":34962
		},
		{
			"buffer":0,
			"byteLength":96,
			"byteOffset":33672,
			"target":34962
		},
		{
			"buffer":0,
			"byteLength":64,
			"byteOffset":33768,
			"target":34962
		},
		{
			"buffer":0,
			"byteLength":24,
			"byteOffset":33832,
			"target":34963
		},
		{
			"buffer":0,
			"byteLength":96,
			"byteOffset":33856,
			"target":34962
		},
		{
			"buffer":0,
			"byteLength":96,
			"byteOffset":33952,
			"target":34962
		},
		{
			"buffer":0,
			"byteLength":64,
			"byteOffset":34048,
			"target":34962
		},
		{
			"buffer":0,
			"byteLength":24,
			"byteOffset":34112,
			"target":34963
		},
		{
			"buffer":0,
			"byteLength":96,
			"byteOffset":34136,
			"target":34962
		},
		{
			"buffer":0,
			"byteLength":96,
			"byteOffset":34232,
			"target":34962
		},
		{
			"buffer":0,
			"byteLength":64,
			"byteOffset":34328,
			"target":34962
		},
		{
			"buffer":0,
			"byteLength":24,
			"byteOffset":34392,
			"target":34963
		}
	],
	"buffers":[
		{
			"byteLength":34416,
			"uri":"traffic_semaphore.bin"
		}
	]
}
