{
	"asset":{
		"generator":"Khronos glTF Blender I/O v4.2.57",
		"version":"2.0"
	},
	"scene":0,
	"scenes":[
		{
			"name":"Scene",
			"nodes":[
				0
			]
		}
	],
	"nodes":[
		{
			"mesh":0,
			"name":"RootNode",
			"translation":[
				0,
				4.470864772796631,
				0
			]
		}
	],
	"materials":[
		{
			"doubleSided":true,
			"name":"Material.001",
			"pbrMetallicRoughness":{
				"baseColorFactor":[
					0.2888900935649872,
					0.2888900935649872,
					0.2888900935649872,
					1
				],
				"roughnessFactor":0.5
			}
		},
		{
			"doubleSided":true,
			"name":"Material.002",
			"pbrMetallicRoughness":{
				"baseColorFactor":[
					0.8006867170333862,
					0.6599932312965393,
					0.06104663759469986,
					1
				],
				"metallicFactor":0,
				"roughnessFactor":0.5
			}
		}
	],
	"meshes":[
		{
			"name":"Cylinder",
			"primitives":[
				{
					"attributes":{
						"POSITION":0,
						"NORMAL":1,
						"TEXCOORD_0":2
					},
					"indices":3,
					"material":0
				},
				{
					"attributes":{
						"POSITION":4,
						"NORMAL":5,
						"TEXCOORD_0":6
					},
					"indices":7,
					"material":1
				}
			]
		}
	],
	"accessors":[
		{
			"bufferView":0,
			"componentType":5126,
			"count":826,
			"max":[
				0.2386852651834488,
				5.393300533294678,
				0.4076405465602875
			],
			"min":[
				-5.405360221862793,
				-4.414999961853027,
				-0.4373122453689575
			],
			"type":"VEC3"
		},
		{
			"bufferView":1,
			"componentType":5126,
			"count":826,
			"type":"VEC3"
		},
		{
			"bufferView":2,
			"componentType":5126,
			"count":826,
			"type":"VEC2"
		},
		{
			"bufferView":3,
			"componentType":5123,
			"count":1326,
			"type":"SCALAR"
		},
		{
			"bufferView":4,
			"componentType":5126,
			"count":4,
			"max":[
				-4.031617641448975,
				4.986557483673096,
				0.29365813732147217
			],
			"min":[
				-5.191148281097412,
				4.986557483673096,
				-0.3233298659324646
			],
			"type":"VEC3"
		},
		{
			"bufferView":5,
			"componentType":5126,
			"count":4,
			"type":"VEC3"
		},
		{
			"bufferView":6,
			"componentType":5126,
			"count":4,
			"type":"VEC2"
		},
		{
			"bufferView":7,
			"componentType":5123,
			"count":6,
			"type":"SCALAR"
		}
	],
	"bufferViews":[
		{
			"buffer":0,
			"byteLength":9912,
			"byteOffset":0,
			"target":34962
		},
		{
			"buffer":0,
			"byteLength":9912,
			"byteOffset":9912,
			"target":34962
		},
		{
			"buffer":0,
			"byteLength":6608,
			"byteOffset":19824,
			"target":34962
		},
		{
			"buffer":0,
			"byteLength":2652,
			"byteOffset":26432,
			"target":34963
		},
		{
			"buffer":0,
			"byteLength":48,
			"byteOffset":29084,
			"target":34962
		},
		{
			"buffer":0,
			"byteLength":48,
			"byteOffset":29132,
			"target":34962
		},
		{
			"buffer":0,
			"byteLength":32,
			"byteOffset":29180,
			"target":34962
		},
		{
			"buffer":0,
			"byteLength":12,
			"byteOffset":29212,
			"target":34963
		}
	],
	"buffers":[
		{
			"byteLength":29224,
			"uri":"light.bin"
		}
	]
}
