{
	"asset":{
		"generator":"Khronos glTF Blender I/O v4.2.57",
		"version":"2.0"
	},
	"scene":0,
	"scenes":[
		{
			"name":"Scene",
			"nodes":[
				0
			]
		}
	],
	"nodes":[
		{
			"mesh":0,
			"name":"RootNode",
			"translation":[
				0,
				4.470864772796631,
				0
			]
		}
	],
	"materials":[
		{
			"doubleSided":true,
			"name":"Material.001",
			"pbrMetallicRoughness":{
				"baseColorFactor":[
					0.2888900935649872,
					0.2888900935649872,
					0.2888900935649872,
					1
				],
				"roughnessFactor":0.5
			}
		},
		{
			"doubleSided":true,
			"name":"Material.002",
			"pbrMetallicRoughness":{
				"baseColorFactor":[
					0.8009624481201172,
					0.008698503486812115,
					0.017463140189647675,
					1
				],
				"metallicFactor":0,
				"roughnessFactor":0.5
			}
		},
		{
			"doubleSided":true,
			"name":"Material.004",
			"pbrMetallicRoughness":{
				"baseColorFactor":[
					0.003760159481316805,
					0.8005601167678833,
					0,
					1
				],
				"metallicFactor":0,
				"roughnessFactor":0.5
			}
		}
	],
	"meshes":[
		{
			"name":"Cylinder",
			"primitives":[
				{
					"attributes":{
						"POSITION":0,
						"NORMAL":1,
						"TEXCOORD_0":2
					},
					"indices":3,
					"material":0
				},
				{
					"attributes":{
						"POSITION":4,
						"NORMAL":5,
						"TEXCOORD_0":6
					},
					"indices":7,
					"material":1
				},
				{
					"attributes":{
						"POSITION":8,
						"NORMAL":9,
						"TEXCOORD_0":10
					},
					"indices":11,
					"material":2
				}
			]
		}
	],
	"accessors":[
		{
			"bufferView":0,
			"componentType":5126,
			"count":250,
			"max":[
				0.3897668123245239,
				2.1398398876190186,
				0.7134630680084229
			],
			"min":[
				-0.2386852651834488,
				-4.414999961853027,
				-0.24000000953674316
			],
			"type":"VEC3"
		},
		{
			"bufferView":1,
			"componentType":5126,
			"count":250,
			"type":"VEC3"
		},
		{
			"bufferView":2,
			"componentType":5126,
			"count":250,
			"type":"VEC2"
		},
		{
			"bufferView":3,
			"componentType":5123,
			"count":504,
			"type":"SCALAR"
		},
		{
			"bufferView":4,
			"componentType":5126,
			"count":4,
			"max":[
				0.3232775926589966,
				2.0441362857818604,
				0.7134630680084229
			],
			"min":[
				-0.1639317125082016,
				1.5622365474700928,
				0.7134630680084229
			],
			"type":"VEC3"
		},
		{
			"bufferView":5,
			"componentType":5126,
			"count":4,
			"type":"VEC3"
		},
		{
			"bufferView":6,
			"componentType":5126,
			"count":4,
			"type":"VEC2"
		},
		{
			"bufferView":7,
			"componentType":5123,
			"count":6,
			"type":"SCALAR"
		},
		{
			"bufferView":8,
			"componentType":5126,
			"count":4,
			"max":[
				0.3299371004104614,
				1.5130047798156738,
				0.7134630680084229
			],
			"min":[
				-0.17059122025966644,
				1.004584550857544,
				0.7134630680084229
			],
			"type":"VEC3"
		},
		{
			"bufferView":9,
			"componentType":5126,
			"count":4,
			"type":"VEC3"
		},
		{
			"bufferView":10,
			"componentType":5126,
			"count":4,
			"type":"VEC2"
		},
		{
			"bufferView":11,
			"componentType":5123,
			"count":6,
			"type":"SCALAR"
		}
	],
	"bufferViews":[
		{
			"buffer":0,
			"byteLength":3000,
			"byteOffset":0,
			"target":34962
		},
		{
			"buffer":0,
			"byteLength":3000,
			"byteOffset":3000,
			"target":34962
		},
		{
			"buffer":0,
			"byteLength":2000,
			"byteOffset":6000,
			"target":34962
		},
		{
			"buffer":0,
			"byteLength":1008,
			"byteOffset":8000,
			"target":34963
		},
		{
			"buffer":0,
			"byteLength":48,
			"byteOffset":9008,
			"target":34962
		},
		{
			"buffer":0,
			"byteLength":48,
			"byteOffset":9056,
			"target":34962
		},
		{
			"buffer":0,
			"byteLength":32,
			"byteOffset":9104,
			"target":34962
		},
		{
			"buffer":0,
			"byteLength":12,
			"byteOffset":9136,
			"target":34963
		},
		{
			"buffer":0,
			"byteLength":48,
			"byteOffset":9148,
			"target":34962
		},
		{
			"buffer":0,
			"byteLength":48,
			"byteOffset":9196,
			"target":34962
		},
		{
			"buffer":0,
			"byteLength":32,
			"byteOffset":9244,
			"target":34962
		},
		{
			"buffer":0,
			"byteLength":12,
			"byteOffset":9276,
			"target":34963
		}
	],
	"buffers":[
		{
			"byteLength":9288,
			"uri":"traffic_semaphore_person.bin"
		}
	]
}
